<svg width="269" height="347" viewBox="0 0 269 347" fill="none" xmlns="http://www.w3.org/2000/svg">
<g opacity="0.435814">
<path fill-rule="evenodd" clip-rule="evenodd" d="M-42.523 74.269C-42.523 74.269 -35.206 29.0519 15.1027 9.04446C65.4107 -10.9636 113.508 12.0691 133.014 49.0756C152.582 86.1972 207.563 110.175 216.405 151.023C223.691 184.686 200.159 232.516 169.67 255.942C151.257 270.09 126.532 276.688 103.911 285.546C80.8343 294.583 59.8177 314.58 33.3457 316.856C22.3084 317.804 11.1469 314.813 1.68013 310.18C-21.9152 298.63 -46.0852 278.346 -45.6832 255.316L-42.523 74.269Z" fill="#DDF4E9"/>
</g>
<ellipse opacity="0.295361" cx="122.871" cy="323.018" rx="122.907" ry="23.9819" fill="#D8D8D8"/>
<mask id="mask0_0_4388" style="mask-type:alpha" maskUnits="userSpaceOnUse" x="102" y="258" width="36" height="52">
<path fill-rule="evenodd" clip-rule="evenodd" d="M131.973 273.216C134.569 276.206 138.225 280.568 137.832 281.844C136.667 285.609 113.733 310.516 105.356 308.959C96.5798 307.327 113.991 285.341 114.408 280.719C114.825 276.096 109.783 263.655 109.783 263.655L125.923 258.067C125.923 258.067 129.378 270.225 131.973 273.216Z" fill="white"/>
</mask>
<g mask="url(#mask0_0_4388)">
<path fill-rule="evenodd" clip-rule="evenodd" d="M131.973 273.216C134.569 276.206 138.225 280.568 137.832 281.844C136.667 285.609 113.733 310.516 105.356 308.959C96.5798 307.327 113.991 285.341 114.408 280.719C114.825 276.096 109.783 263.655 109.783 263.655L125.923 258.067C125.923 258.067 129.378 270.225 131.973 273.216Z" fill="url(#paint0_linear_0_4388)"/>
</g>
<mask id="mask1_0_4388" style="mask-type:alpha" maskUnits="userSpaceOnUse" x="120" y="294" width="36" height="42">
<path fill-rule="evenodd" clip-rule="evenodd" d="M150.951 307.345C153.174 310.09 156.294 314.085 155.794 315.128C154.322 318.21 131.865 335.047 123.224 335.009C114.584 334.971 132.486 316.057 133.318 312.189C134.15 308.321 130.448 297.386 130.448 297.386L146.526 294.04C146.526 294.04 148.727 304.599 150.951 307.345Z" fill="white"/>
</mask>
<g mask="url(#mask1_0_4388)">
<path fill-rule="evenodd" clip-rule="evenodd" d="M150.951 307.345C153.174 310.09 156.294 314.085 155.794 315.128C154.322 318.21 131.865 335.047 123.224 335.009C114.584 334.971 132.486 316.057 133.318 312.189C134.15 308.321 130.448 297.386 130.448 297.386L146.526 294.04C146.526 294.04 148.727 304.599 150.951 307.345Z" fill="url(#paint1_linear_0_4388)"/>
</g>
<path fill-rule="evenodd" clip-rule="evenodd" d="M222.457 321.02H216.477V225.519H222.457V321.02Z" fill="#828282"/>
<path fill-rule="evenodd" clip-rule="evenodd" d="M243.377 44.9756C223.024 9.79086 232.328 21.7012 223.643 9.91399C214.656 -2.2837 192.964 -2.78392 188.554 7.63991C188.554 7.63991 178.489 12.3138 173.769 24.2177C167.542 39.9247 177.206 53.2908 190.591 77.1847C201.644 96.9139 257.986 70.2303 243.377 44.9756Z" fill="#69626F"/>
<mask id="mask2_0_4388" style="mask-type:alpha" maskUnits="userSpaceOnUse" x="180" y="24" width="40" height="42">
<path fill-rule="evenodd" clip-rule="evenodd" d="M201.74 33.8031C208.661 35.4075 208.896 36.6287 208.822 36.9436L209.648 34.9417C213.019 29.227 219.501 35.1848 215.871 42.8427C212.24 50.503 219.799 65.2129 219.799 65.2129H202.341L202.778 55.6094C178.922 65.456 180.866 32.1448 180.866 32.1448C184.367 30.3226 189.813 24.2439 189.813 24.2439C191.238 27.5245 192.305 31.6192 201.74 33.8031Z" fill="white"/>
</mask>
<g mask="url(#mask2_0_4388)">
<path fill-rule="evenodd" clip-rule="evenodd" d="M201.74 33.8031C208.661 35.4075 208.896 36.6287 208.822 36.9436L209.648 34.9417C213.019 29.227 219.501 35.1848 215.871 42.8427C212.24 50.503 219.799 65.2129 219.799 65.2129H202.341L202.778 55.6094C178.922 65.456 180.866 32.1448 180.866 32.1448C184.367 30.3226 189.813 24.2439 189.813 24.2439C191.238 27.5245 192.305 31.6192 201.74 33.8031Z" fill="url(#paint2_linear_0_4388)"/>
</g>
<path fill-rule="evenodd" clip-rule="evenodd" d="M208.438 52.4532C206.036 57.4509 204.123 57.931 204.123 57.931L203.811 67.2113H207.507C208.332 61.3761 209.374 50.5051 208.438 52.4532Z" fill="#F79D5A"/>
<mask id="mask3_0_4388" style="mask-type:alpha" maskUnits="userSpaceOnUse" x="126" y="61" width="98" height="75">
<path fill-rule="evenodd" clip-rule="evenodd" d="M211.813 61.2208C218.77 61.42 223.726 69.7192 223.796 80.5154L220.379 127.775C220.024 132.12 216.149 135.395 211.655 135.147L128.993 134.003C127.287 133.909 126.309 132.082 127.213 130.679C129.058 127.81 132.702 124.171 138.973 125.271C144.987 126.325 148.647 127.572 148.647 127.572L199.07 116.537L197.616 80.2235C196.069 68.5465 204.522 61.2158 211.53 61.2158C211.624 61.2158 211.72 61.2183 211.813 61.2208Z" fill="white"/>
</mask>
<g mask="url(#mask3_0_4388)">
<path fill-rule="evenodd" clip-rule="evenodd" d="M211.813 61.2208C218.77 61.42 223.726 69.7192 223.796 80.5154L220.379 127.775C220.024 132.12 216.149 135.395 211.655 135.147L128.993 134.003C127.287 133.909 126.309 132.082 127.213 130.679C129.058 127.81 132.702 124.171 138.973 125.271C144.987 126.325 148.647 127.572 148.647 127.572L199.07 116.537L197.616 80.2235C196.069 68.5465 204.522 61.2158 211.53 61.2158C211.624 61.2158 211.72 61.2183 211.813 61.2208Z" fill="url(#paint3_linear_0_4388)"/>
</g>
<path fill-rule="evenodd" clip-rule="evenodd" d="M201.897 63.974C201.897 63.974 195.871 80.9839 187.731 89.7355C179.589 98.487 179.452 106.646 189.938 117.919C200.424 129.193 190.766 170.133 190.766 170.133H238.784C238.784 170.133 229.071 151.063 232.344 122.023C236.76 82.862 225.845 65.2841 215.453 60.2166L201.897 63.974Z" fill="#D94026"/>
<mask id="mask4_0_4388" style="mask-type:alpha" maskUnits="userSpaceOnUse" x="137" y="69" width="91" height="83">
<path fill-rule="evenodd" clip-rule="evenodd" d="M227.792 88.7315L227.5 138.66C227.432 143.253 223.915 146.949 219.58 146.981L140.044 151.148C138.399 151.16 137.342 149.302 138.122 147.766C139.716 144.63 142.988 140.565 149.085 141.313C154.934 142.033 158.53 143.106 158.53 143.106L206.302 128.225L202.606 90.1259C200.351 77.7797 208.251 69.4622 215.05 69.2152C215.145 69.2126 215.238 69.21 215.332 69.21C221.899 69.21 227.051 77.5394 227.792 88.7315Z" fill="white"/>
</mask>
<g mask="url(#mask4_0_4388)">
<path fill-rule="evenodd" clip-rule="evenodd" d="M227.792 88.7315L227.5 138.66C227.432 143.253 223.915 146.949 219.58 146.981L140.044 151.148C138.399 151.16 137.342 149.302 138.122 147.766C139.716 144.63 142.988 140.565 149.085 141.313C154.934 142.033 158.53 143.106 158.53 143.106L206.302 128.225L202.606 90.1259C200.351 77.7797 208.251 69.4622 215.05 69.2152C215.145 69.2126 215.238 69.21 215.332 69.21C221.899 69.21 227.051 77.5394 227.792 88.7315Z" fill="url(#paint4_linear_0_4388)"/>
</g>
<path fill-rule="evenodd" clip-rule="evenodd" d="M228.61 93.6844L228.315 142.109C228.243 146.568 224.636 150.148 220.198 150.184L190.658 161.047C190.863 159.559 192.652 148.533 192.813 146.962L217.969 145.716C222.408 145.689 226.015 142.101 226.086 137.642L226.382 89.2171C226.149 85.9063 225.495 82.8478 224.511 80.2017C226.739 83.574 228.234 88.2834 228.61 93.6844Z" fill="#C93727"/>
<path fill-rule="evenodd" clip-rule="evenodd" d="M105.216 233.835C105.122 256.385 106.355 275.62 106.355 275.62L126.874 282.624L132.601 243.184L105.216 233.835Z" fill="#BE6A62"/>
<path fill-rule="evenodd" clip-rule="evenodd" d="M201.915 219.691L134.571 220.85L149.891 303.495H128.214C128.214 303.495 90.3498 211.793 102.779 194.774C114.629 178.549 189.197 167.686 189.197 167.686H239.488C239.488 167.686 250.759 213.896 201.915 219.691Z" fill="#AF6051"/>
<path fill-rule="evenodd" clip-rule="evenodd" d="M189.198 167.685H239.488C239.488 167.685 239.877 169.822 240.338 173.199C244.795 205.727 215.147 234.633 178.648 213.606C155.769 200.425 123.542 175.319 107.115 191.587C107.115 191.587 102.776 165.262 125.968 158.801C130.8 157.454 135.898 157.376 140.824 158.329L189.198 167.685Z" fill="#BE6A62"/>
<path fill-rule="evenodd" clip-rule="evenodd" d="M13.4028 336.008L48.9873 155.135H41.7212L7.54972 336.008H13.4028Z" fill="#415868"/>
<path fill-rule="evenodd" clip-rule="evenodd" d="M167.447 336.008L133.277 155.135H126.01L161.595 336.008H167.447Z" fill="#415868"/>
<path fill-rule="evenodd" clip-rule="evenodd" d="M174.338 155.192H-0.0354614V148.533H174.338V155.192Z" fill="#D49D80"/>
<path fill-rule="evenodd" clip-rule="evenodd" d="M133.276 144.32H102.052C100.691 144.32 99.5871 145.426 99.5871 146.792V148.494H135.74V146.792C135.74 145.426 134.636 144.32 133.276 144.32Z" fill="#93867F"/>
<mask id="mask5_0_4388" style="mask-type:alpha" maskUnits="userSpaceOnUse" x="38" y="80" width="57" height="73">
<path fill-rule="evenodd" clip-rule="evenodd" d="M56.0618 80.2017V84.8822H54.008C51.0418 84.8822 48.5436 87.1438 48.1946 90.146L43.6466 129.268C42.7746 136.763 46.7945 143.828 53.4224 146.448C55.1375 147.124 56.8697 147.468 58.5743 147.468H92.5975C93.8655 147.468 94.8931 148.516 94.8931 149.808C94.8931 151.1 93.8655 152.147 92.5975 152.147H58.5743C56.2997 152.147 54.0067 151.698 51.7621 150.81C43.1799 147.419 37.9678 138.334 39.0855 128.718L43.6335 89.5946C44.2558 84.2402 48.7162 80.2017 54.008 80.2017H56.0618Z" fill="white"/>
</mask>
<g mask="url(#mask5_0_4388)">
<path fill-rule="evenodd" clip-rule="evenodd" d="M56.0618 80.2017V84.8822H54.008C51.0418 84.8822 48.5436 87.1438 48.1946 90.146L43.6466 129.268C42.7746 136.763 46.7945 143.828 53.4224 146.448C55.1375 147.124 56.8697 147.468 58.5743 147.468H92.5975C93.8655 147.468 94.8931 148.516 94.8931 149.808C94.8931 151.1 93.8655 152.147 92.5975 152.147H58.5743C56.2997 152.147 54.0067 151.698 51.7621 150.81C43.1799 147.419 37.9678 138.334 39.0855 128.718L43.6335 89.5946C44.2558 84.2402 48.7162 80.2017 54.008 80.2017H56.0618Z" fill="url(#paint5_linear_0_4388)"/>
</g>
<mask id="mask6_0_4388" style="mask-type:alpha" maskUnits="userSpaceOnUse" x="55" y="23" width="20" height="97">
<path fill-rule="evenodd" clip-rule="evenodd" d="M74.9082 119.172C67.2245 119.172 60.6053 112.856 60.1263 105.067L55.9502 37.35C55.4699 29.5603 61.3089 23.2446 68.9939 23.2446L74.9082 119.172Z" fill="white"/>
</mask>
<g mask="url(#mask6_0_4388)">
<path fill-rule="evenodd" clip-rule="evenodd" d="M74.9082 119.172C67.2245 119.172 60.6053 112.856 60.1263 105.067L55.9502 37.35C55.4699 29.5603 61.3089 23.2446 68.9939 23.2446L74.9082 119.172Z" fill="url(#paint6_linear_0_4388)"/>
</g>
<path fill-rule="evenodd" clip-rule="evenodd" d="M74.5197 25.2676L66.9141 25.2432L72.7577 118.883L80.3633 118.906L74.5197 25.2676Z" fill="#594F47"/>
<path fill-rule="evenodd" clip-rule="evenodd" d="M262.017 159.94V159.946C262.248 159.881 262.478 159.816 262.716 159.766C262.48 159.816 262.246 159.874 262.017 159.94ZM264.83 203.809C257.636 237.393 179.379 231.731 179.379 231.731C176.55 231.731 174.913 229.357 174.256 226.6C171.64 215.608 194.643 218.35 194.643 218.35C262.362 215.334 233.236 121.454 246.42 106.911C271.201 79.5744 272.024 170.226 264.83 203.809Z" fill="#FFD217"/>
<path fill-rule="evenodd" clip-rule="evenodd" d="M178.81 317.372C178.81 321.594 196.046 325.017 217.308 325.017C238.572 325.017 255.808 321.594 255.808 317.372C255.808 313.15 238.572 309.727 217.308 309.727C196.046 309.727 178.81 313.15 178.81 317.372Z" fill="#828282"/>
<defs>
<linearGradient id="paint0_linear_0_4388" x1="137.86" y1="309.029" x2="102.887" y2="309.029" gradientUnits="userSpaceOnUse">
<stop stop-color="#FDD4AC"/>
<stop offset="1" stop-color="#F7B883"/>
</linearGradient>
<linearGradient id="paint1_linear_0_4388" x1="155.848" y1="335.009" x2="120.874" y2="335.009" gradientUnits="userSpaceOnUse">
<stop stop-color="#FDD4AC"/>
<stop offset="1" stop-color="#F7B883"/>
</linearGradient>
<linearGradient id="paint2_linear_0_4388" x1="204.902" y1="19.3024" x2="236.219" y2="45.8742" gradientUnits="userSpaceOnUse">
<stop stop-color="#FDD4AC"/>
<stop offset="1" stop-color="#F7B883"/>
</linearGradient>
<linearGradient id="paint3_linear_0_4388" x1="116.535" y1="109.549" x2="174.299" y2="24.9673" gradientUnits="userSpaceOnUse">
<stop stop-color="#FDD4AC"/>
<stop offset="1" stop-color="#F7B883"/>
</linearGradient>
<linearGradient id="paint4_linear_0_4388" x1="129.23" y1="122.324" x2="194.821" y2="38.6108" gradientUnits="userSpaceOnUse">
<stop stop-color="#FDD4AC"/>
<stop offset="1" stop-color="#F7B883"/>
</linearGradient>
<linearGradient id="paint5_linear_0_4388" x1="59.7915" y1="164.038" x2="13.1939" y2="135.317" gradientUnits="userSpaceOnUse">
<stop stop-color="#7C746D"/>
<stop offset="1" stop-color="#A59C95"/>
</linearGradient>
<linearGradient id="paint6_linear_0_4388" x1="70.4333" y1="151.953" x2="44.9869" y2="148.288" gradientUnits="userSpaceOnUse">
<stop stop-color="#7C746D"/>
<stop offset="1" stop-color="#A59C95"/>
</linearGradient>
</defs>
</svg>
